<svg xmlns="http://www.w3.org/2000/svg" fill="none" viewBox="0 0 48 45"><circle cx="18" cy="18" r="18" fill="#DEEFFA"/><path fill="#000" d="M29 18.973a5.093 5.093 0 100 10.186 5.093 5.093 0 000-10.186zm0 8.41a3.315 3.315 0 113.315-3.316A3.315 3.315 0 0129 27.373v.01z"/><path fill="#000" d="M29 14.778a10.48 10.48 0 00-10.47 10.426c0 4.151 2.328 7.627 4.035 10.16l.311.463a88.549 88.549 0 005.458 7.11l.675.792.676-.791a88.736 88.736 0 005.458-7.111l.31-.471c1.698-2.534 4.027-6 4.027-10.152A10.48 10.48 0 0029 14.778zm4.97 19.555l-.32.471c-1.53 2.294-3.556 4.863-4.65 6.134-1.049-1.271-3.12-3.84-4.648-6.134l-.312-.47c-1.573-2.347-3.733-5.556-3.733-9.165a8.693 8.693 0 1117.387 0c0 3.644-2.151 6.853-3.725 9.164z"/></svg>