<svg width="24" height="24" viewBox="0 0 24 24" fill="none" xmlns="http://www.w3.org/2000/svg">
<path d="M10.17 19C10.3194 19.0005 10.467 18.9676 10.6019 18.9035C10.7369 18.8395 10.8558 18.7461 10.95 18.63L15.78 12.63C15.927 12.4511 16.0074 12.2267 16.0074 11.995C16.0074 11.7634 15.927 11.539 15.78 11.36L10.78 5.36003C10.6102 5.15581 10.3663 5.02739 10.1019 5.00301C9.83746 4.97863 9.57417 5.06029 9.36996 5.23003C9.16574 5.39977 9.03732 5.64368 9.01294 5.90811C8.98856 6.17253 9.07022 6.43581 9.23996 6.64003L13.71 12L9.38996 17.36C9.26767 17.5068 9.19 17.6856 9.16612 17.8751C9.14224 18.0647 9.17316 18.2571 9.25521 18.4296C9.33727 18.6021 9.46703 18.7475 9.62914 18.8486C9.79125 18.9497 9.97892 19.0023 10.17 19Z" fill="white"/>
</svg>
