<svg width="93" height="81" fill="none" xmlns="http://www.w3.org/2000/svg"><path d="M16.878 32.234c1.683-1.596 3.166-3.647 3.653-5.714.834-3.546-1.591-7.423.26-10.77.942-1.708 2.917-2.537 4.774-3.115 2.931-.92 5.612-1.836 6.19-5.228.225-1.325-.46-2.88.374-3.94.629-.797 1.888-.838 2.788-.368 1.55.814 1.929 2.66 3.27 3.612.915.65 2.2.727 3.299.803 3.617.251 6.19-2.123 9.547-2.972 6.763-1.714 6.66 4.047 11 4.318 2.526.158 6.466-1.474 7.99-3.474.957-1.258 1.745-2.722 3.086-3.555 3.463-2.16 8.2 1.053 7.326 5.658-.599 3.136-3.71 3.55-4.717 6.144-1.044 2.69-.45 6.226 1.586 8.288 2.977 3.018 6.395 1.816 7.848 1.995 2.696.332 2.66 3.213-.026 3.995-1.151.338-2.415.271-3.504.768-6.508 2.962 3.698 9.638 3.606 15.654-.061 4.032-3.96 6.794-5.607 10.202-1.923 3.975.215 5.622 2.753 8.303 5.51 5.811.583 11.434-5.858 7.254-4.236-2.752-7.935-7.73-15.686 1.171-2.272 2.61-4.901 5.515-8.36 5.608-4.062.107-7.346-3.77-11.409-3.909-3.305-.113-6.098 2.236-8.943 3.929-2.844 1.688-6.927 2.604-9.137.143-3.801-4.24 2.134-10.36-.307-14.974-2.097-3.965-9.06-1.433-10.836-5.474-.706-1.601.287-3.392 1.09-4.947 2.732-5.28-5.53-10.36-1.386-15.174 1.427-1.657 3.161-2.164 5.336-4.23zm47.38 41.101c-.113.533-.113 1.116.158 1.592.61 1.069 2.129 1.058 3.346.88.936-.139 1.883-.297 2.722-.732s1.565-1.187 1.73-2.118c.199-1.126-.507-2.292-1.52-2.83-1.013-.531-2.251-.506-3.33-.122-1.5.532-2.774 1.78-3.106 3.33zM25.416.01c-2.015-.138-4.031 1.284-4.579 3.228-.547 1.944.44 4.21 2.236 5.137 2.333 1.207 5.602-.215 6.308-2.742.712-2.528-1.345-5.444-3.965-5.623zM17.625 5.5a2.05 2.05 0 00-.783-1.857c-.814-.614-2.108-.466-2.758.322-.65.788-.562 2.082.195 2.768 1.084.987 3.162.22 3.346-1.233zM7.495 73.622c1.504 1.305 3.842 1.54 5.576.573 1.74-.972 2.758-3.085 2.44-5.05-.27-1.677-1.488-3.166-3.074-3.775-1.586-.609-3.484-.307-4.81.757-2.22 1.786-2.286 5.633-.132 7.495zm7.894 7.336c.9-.22 1.504-1.274 1.228-2.159-.22-.716-.952-1.233-1.699-1.207-.747.03-1.437.603-1.601 1.33-.256 1.13.946 2.307 2.072 2.036zM.05 38.742c-.394 2.097 1.56 4.287 3.689 4.133 1.724-.122 3.223-1.708 3.243-3.438.026-1.729-1.427-3.355-3.146-3.53C2.113 35.74.373 37.044.05 38.742zm92.918-12.754a2.092 2.092 0 00-.839-2.036 2.104 2.104 0 00-2.2-.108c-1.192.68-1.29 2.67-.169 3.464 1.126.788 2.968.03 3.208-1.32zm-5.305-11.91c-1.095-1.852-3.408-1.673-4.922-.302-1.847 1.668-1.678 5.188.46 6.615 1.484.987 3.694.292 4.63-1.228.937-1.514.737-3.55-.168-5.085z" fill="#fff"/><path d="M32.62 10.307a.59.59 0 01-.527-.85 6.74 6.74 0 00.598-1.893c.108-.619.051-1.243.005-1.795-.071-.84-.092-1.376.174-1.714.159-.205.445-.312.803-.312.277 0 .563.072.804.194.624.328 1.043.952 1.483 1.617.133.2.272.414.425.624.19.266.128.63-.133.824a.588.588 0 01-.819-.133 30.953 30.953 0 01-.45-.66c-.368-.558-.69-1.039-1.049-1.223a.669.669 0 00-.107-.04c0 .224.026.536.04.73.052.62.114 1.326-.02 2.093a7.954 7.954 0 01-.706 2.22.59.59 0 01-.521.318zm-3.223 3.1a.581.581 0 01-.522-.322.587.587 0 01.256-.793 7.508 7.508 0 001.504-.988.586.586 0 01.829.072.586.586 0 01-.072.829 9.036 9.036 0 01-1.73 1.135.57.57 0 01-.265.067zm-7.664 7.556a.59.59 0 01-.583-.512c-.19-1.422-.261-2.92.47-4.246.491-.885 1.418-1.601 2.84-2.18a.587.587 0 11.445 1.09c-1.162.476-1.898 1.019-2.256 1.663-.538.972-.522 2.113-.333 3.525a.588.588 0 01-.506.66h-.077zM17.62 34.228a.583.583 0 01-.435-.194.584.584 0 01.04-.829c.103-.092.2-.184.302-.281a.59.59 0 01.814.854c-.108.103-.215.205-.322.302a.612.612 0 01-.4.148zm-4.769 9.035a.594.594 0 01-.537-.343c-.967-2.107-1.642-4-.051-5.847.655-.757 1.371-1.238 2.287-1.852l.64-.43a.59.59 0 01.67.972c-.226.154-.44.302-.655.44-.84.563-1.5 1.003-2.047 1.642-1.049 1.218-.777 2.4.23 4.59a.582.582 0 01-.537.828zm1.852 14.54a.495.495 0 01-.21-.041c-.895-.348-1.463-.845-1.78-1.566-.496-1.125.282-2.624.972-3.944l.098-.184a5.825 5.825 0 00.67-2.64.586.586 0 01.588-.578h.01a.589.589 0 01.578.598 7.063 7.063 0 01-.798 3.162l-.097.184c-.512.982-1.207 2.323-.936 2.931.19.43.527.712 1.125.942a.59.59 0 01.338.762.61.61 0 01-.558.374zm9.767 10.308a.586.586 0 01-.573-.716c.327-1.474.42-2.64.286-3.684a.592.592 0 011.172-.153c.154 1.182.056 2.476-.302 4.087a.608.608 0 01-.583.466zm-1.228 5.444h-.046a.589.589 0 01-.542-.63c.046-.603.169-1.304.389-2.205a.588.588 0 111.146.276c-.205.84-.318 1.479-.359 2.021a.593.593 0 01-.588.538z" fill="#fff"/><path d="M33.612 74.726a.591.591 0 01-.496-.271.592.592 0 01.179-.814c2.307-1.468 4.84-2.905 7.843-2.803 2.22.077 4.088.962 5.817 1.867a.59.59 0 01.25.793.592.592 0 01-.792.25c-1.607-.838-3.336-1.662-5.31-1.728-2.677-.092-4.928 1.192-7.174 2.619a.72.72 0 01-.317.087zm24.506-2.154a.59.59 0 01-.425-.998c.553-.583 1.116-1.222 1.545-1.708.277-.317.553-.624.824-.91a.59.59 0 11.86.808 34.16 34.16 0 00-.793.88 49.54 49.54 0 01-1.581 1.75.613.613 0 01-.43.178zm4.364-4.542a.59.59 0 01-.384-1.039c2.318-1.965 4.538-2.921 6.79-2.921 1.483 0 2.967.434 4.537 1.32a.587.587 0 01.22.803.587.587 0 01-.803.22c-1.407-.798-2.665-1.172-3.954-1.172-1.965 0-3.935.865-6.032 2.64a.534.534 0 01-.374.148z" fill="#E3D2C8"/><path d="M83.208 68.065a.587.587 0 01-.584-.527c-.102-.987-.731-2.138-1.78-3.243-.215-.225-.425-.445-.63-.655-.915-.947-1.861-1.924-2.532-3.075a.59.59 0 01.21-.803.587.587 0 01.803.215c.599 1.023 1.494 1.949 2.359 2.844.21.215.424.435.64.665 1.57 1.658 2.01 3.054 2.097 3.935a.59.59 0 01-.527.644h-.056zm.235-21.671a.589.589 0 01-.558-.773c.149-.455.22-.89.23-1.324.026-1.806-1.437-4.047-2.854-6.211-.911-1.386-1.765-2.696-2.323-4.026a.588.588 0 01.317-.773.596.596 0 01.773.312c.516 1.228 1.345 2.492 2.225 3.832 1.514 2.313 3.08 4.707 3.05 6.87-.01.553-.103 1.1-.287 1.668a.617.617 0 01-.573.425zm2.185-20.09a.584.584 0 01-.46-.225 1.069 1.069 0 00-.267-.062c-.03-.005-.066-.005-.107-.005-.2 0-.43.016-.68.036l-.072.005c-.45.031-.967.072-1.545.072-1.888 0-3.51-.43-4.942-1.315a.589.589 0 01.613-1.003c1.249.768 2.66 1.141 4.329 1.141.537 0 1.028-.035 1.463-.066l.071-.005c.4-.031.752-.062 1.018-.026.691.082 1.136.4 1.172.819a.586.586 0 01-.542.629c-.02.005-.036.005-.051.005zM71.251 6.9a.593.593 0 01-.47-.946c.24-.313.465-.64.695-.963.66-.941 1.285-1.831 2.139-2.363a3.487 3.487 0 011.883-.543c1.161 0 2.322.568 3.115 1.52.302.363.543.772.706 1.212a.59.59 0 01-.342.757.59.59 0 01-.758-.342 3.049 3.049 0 00-.511-.88c-.88-1.06-2.369-1.412-3.464-.732-.65.404-1.207 1.197-1.796 2.041-.24.338-.475.676-.726 1.003a.591.591 0 01-.47.235zM57.587 8.818a.603.603 0 01-.41-.164c-.158-.153-.312-.307-.465-.455l-.046-.046c-1.095-1.09-1.817-1.811-3.33-1.811-.518 0-1.121.087-1.781.256-1.07.27-2.098.752-3.188 1.258l-.496-1.064c1.141-.532 2.215-1.033 3.397-1.33.757-.195 1.453-.292 2.072-.292 2 0 2.998.998 4.16 2.154l.046.046c.143.143.291.292.445.44a.59.59 0 01.015.834.588.588 0 01-.42.174zm7.668 65.32a.587.587 0 01-.573-.716c.282-1.32 1.392-2.502 2.824-3.009 1.039-.368 2.16-.337 2.983.097.64.338 1.126.962 1.274 1.632a.59.59 0 01-1.151.251c-.072-.338-.338-.67-.67-.844-.532-.281-1.31-.286-2.042-.03-1.054.373-1.867 1.217-2.067 2.148a.594.594 0 01-.578.47zM22.377 5.687a.584.584 0 01-.568-.44 3.383 3.383 0 010-1.75c.42-1.504 1.975-2.593 3.53-2.491.932.066 1.817.568 2.43 1.376a.591.591 0 01-.112.824.592.592 0 01-.824-.113c-.409-.542-.982-.875-1.57-.916-.998-.071-2.047.666-2.318 1.632a2.247 2.247 0 000 1.136.589.589 0 01-.42.716.363.363 0 01-.148.026zM7.444 70.623a.592.592 0 01-.589-.573c-.03-1.269.486-2.456 1.387-3.177a3.995 3.995 0 013.867-.609 3.997 3.997 0 012.472 3.034.59.59 0 01-1.161.19c-.154-.932-.85-1.786-1.73-2.129-.88-.338-1.97-.169-2.706.425-.614.496-.972 1.33-.947 2.23a.588.588 0 01-.573.604c-.01.005-.01.005-.02.005zM5.51 39.677a.587.587 0 01-.578-.491c-.108-.64-.676-1.187-1.295-1.248-.71-.072-1.448.48-1.58 1.181a.591.591 0 01-.686.471.59.59 0 01-.47-.686c.24-1.289 1.55-2.266 2.854-2.133 1.14.113 2.144 1.07 2.338 2.226a.583.583 0 01-.481.675c-.036 0-.072.005-.102.005zm77.145-22.075a.589.589 0 01-.588-.558c-.057-1.049.327-2.056 1.028-2.686.71-.639 1.637-.946 2.47-.818.707.107 1.3.522 1.679 1.156a4.32 4.32 0 01.599 2.123.592.592 0 01-.584.594h-.005a.59.59 0 01-.588-.584 3.137 3.137 0 00-.435-1.534c-.2-.338-.481-.537-.844-.594-.481-.071-1.06.128-1.504.532-.44.4-.68 1.049-.64 1.75a.585.585 0 01-.552.619h-.036z" fill="#fff"/></svg>