<svg xmlns="http://www.w3.org/2000/svg" fill="none" viewBox="0 0 25 23"><g clip-path="url(#clip0)"><path fill="#7A7877" d="M24.276 11.519L13.71.959 13.002.25a.861.861 0 00-1.214 0L.514 11.52A1.748 1.748 0 000 12.776c.011.963.812 1.731 1.775 1.731h1.162v8.906h18.916v-8.906h1.187c.468 0 .908-.183 1.239-.514a1.74 1.74 0 00.511-1.238 1.74 1.74 0 00-.514-1.236zm-10.35 9.925h-3.062v-5.578h3.062v5.578zm5.958-8.905v8.905h-4.208V15.21c0-.604-.49-1.094-1.094-1.094h-4.375c-.604 0-1.093.49-1.093 1.094v6.234H4.906V12.54H2.28L12.397 2.43l.631.632 9.483 9.478h-2.628z"/></g><defs><clipPath id="clip0"><path fill="#fff" d="M0 0h25v23H0z"/></clipPath></defs></svg>