<svg xmlns="http://www.w3.org/2000/svg" fill="none" viewBox="0 0 130 119"><circle cx="80.738" cy="49" r="49" fill="#DEEFFA"/><path fill="#000" d="M97.309 40.517a2.535 2.535 0 000-3.584 2.53 2.53 0 00-3.584 0 2.532 2.532 0 000 3.584 2.536 2.536 0 003.584 0zm-65.882 5.065a2.535 2.535 0 000-3.583 2.536 2.536 0 00-3.583 0 2.53 2.53 0 000 3.583 2.53 2.53 0 003.583 0zM17.07 58.848l7.29-6.684c.952-.873.951-2.285 0-3.157-.951-.873-2.494-.872-3.445 0l-7.291 6.684c-.95.872-.95 2.286 0 3.157.952.872 2.494.872 3.446 0z"/><path fill="#000" fill-rule="evenodd" d="M121.412 48.683l-26.98-26.984a2.383 2.383 0 00-3.32-.05l-2.936 2.766-.115.108a10536.77 10536.77 0 00-9.035 8.514l-.012.01a.302.302 0 00-.014.014c-2.333 2.333-4.63 3.373-7.447 3.373-5.76 0-10.172 1.626-13.836 5.097-3.004-2.846-6.41-4.317-11.161-4.808L34.632 24.8a2.385 2.385 0 00-3.373 0L.699 55.361a2.38 2.38 0 00-.03 3.34l.03.032 19.914 19.883-.842.842a8.343 8.343 0 00.001 11.805 8.317 8.317 0 005.989 2.436 8.284 8.284 0 002.443 5.996 8.312 8.312 0 005.989 2.439 8.284 8.284 0 002.443 5.993 8.311 8.311 0 005.989 2.436 8.282 8.282 0 002.444 5.996c3.254 3.255 8.548 3.255 11.803 0l.844-.844.844.844c3.255 3.255 8.55 3.255 11.804 0a8.288 8.288 0 002.445-5.991 8.282 8.282 0 005.988-2.442 8.32 8.32 0 002.44-5.988 8.284 8.284 0 005.992-2.443 8.281 8.281 0 002.443-5.996 8.318 8.318 0 005.99-2.437 8.343 8.343 0 000-11.804l-.842-.841 5.115-5.107a2.501 2.501 0 00-3.284-3.457l-5.204 5.19-20.239-20.24 1.686-1.685a2.385 2.385 0 10-3.373-3.374L57.715 61.751a4.778 4.778 0 01-6.746 0 4.78 4.78 0 010-6.747l4.845-4.844 4.867-4.866c2.828-2.828 6.182-4.09 10.872-4.09 3.373 0 6.286-1.014 9.014-3.16l23.749 24.364-3.778 3.768a2.501 2.501 0 003.516 3.236c1.899-1.897 6.344-6.341 17.358-17.357a2.383 2.383 0 000-3.372zM5.758 57.046l27.188-27.187 9.163 9.163-10.748 10.75a2.501 2.501 0 003.366 3.378l11.646-11.648c3.476.397 5.816 1.397 7.962 3.392l-6.739 6.737c-3.716 3.72-3.716 9.771.001 13.492 3.72 3.717 9.773 3.718 13.492 0l6.747-6.747L79.78 70.323l12.507 12.509a3.58 3.58 0 01.001 5.056 3.585 3.585 0 01-5.06 0l-10.962-10.96a2.385 2.385 0 00-3.373 3.372l10.962 10.963a3.574 3.574 0 010 5.06 3.575 3.575 0 01-5.059 0l-10.96-10.965a2.386 2.386 0 00-3.374 3.374l10.962 10.963a3.58 3.58 0 010 5.058 3.554 3.554 0 01-2.53 1.048c-1.602 0-2.437-.892-3.547-2.078-.461-.492-.97-1.035-1.6-1.586a8.283 8.283 0 00-2.44-5.814 8.281 8.281 0 00-5.99-2.445 8.28 8.28 0 00-2.445-5.99 8.32 8.32 0 00-5.988-2.438 8.337 8.337 0 00-8.431-8.436 8.284 8.284 0 00-2.445-5.989c-3.254-3.255-8.55-3.255-11.804 0l-4.218 4.218-5.683-5.666L30.418 57.46a2.501 2.501 0 00-3.385-3.361L14.927 66.207l-9.169-9.161zm17.386 30.843a3.576 3.576 0 010-5.058l8.433-8.434a3.582 3.582 0 015.058 0 3.573 3.573 0 010 5.061l-8.43 8.43a3.587 3.587 0 01-5.061.001zm8.433 8.434a3.575 3.575 0 010-5.061l8.431-8.431c1.4-1.4 5.06 0 5.06 0a3.575 3.575 0 010 5.057v.002l-8.433 8.433a3.581 3.581 0 01-5.058 0zm8.431 8.43a3.575 3.575 0 010-5.058l8.433-8.433a3.58 3.58 0 015.06.002 3.574 3.574 0 01-.001 5.058h-.001l-8.43 8.43a3.585 3.585 0 01-5.061.001zm8.433 8.434a3.575 3.575 0 010-5.061l8.431-8.431a3.574 3.574 0 015.06 0 3.576 3.576 0 010 5.059l-8.432 8.433a3.582 3.582 0 01-5.059 0zm18.55 0a3.58 3.58 0 01-5.058 0l-.844-.844 4.216-4.217c.285-.285.543-.589.781-.905l.904.904.002.001v.001a3.574 3.574 0 01-.001 5.06zm40.698-54.152L84.087 34.82l8.61-8.112 23.656 23.66-8.664 8.667z" clip-rule="evenodd"/></svg>