<svg xmlns="http://www.w3.org/2000/svg" fill="none" viewBox="0 0 48 45"><circle cx="18" cy="18" r="18" fill="#DEEFFA"/><path fill="#000" d="M39 42h-.17C19.18 40.87 16.39 24.29 16 19.23A2.998 2.998 0 0118.76 16h5.51a2 2 0 011.86 1.26L27.65 21a2 2 0 01-.44 2.16l-2.13 2.15a9.37 9.37 0 007.58 7.6l2.17-2.15a2 2 0 012.17-.41l3.77 1.51A2 2 0 0142 33.72V39a3 3 0 01-3 3zM19 18a1 1 0 00-1 1v.08C18.46 25 21.41 39 38.94 40a1 1 0 001.06-.94v-5.34l-3.77-1.51-2.87 2.85-.48-.06c-8.7-1.09-9.88-9.79-9.88-9.88l-.06-.48 2.84-2.87-1.5-3.77H19z"/></svg>