<svg width="1476" height="1242" fill="none" xmlns="http://www.w3.org/2000/svg"><path d="M1474 2c-40.61 21.04-223.33 32.435-309.62 35.502 0 0-162.59 9.373-108.45 59.074 67.66 62.125 66.07 104.308-32.86 104.308-7.47 0-283.716-6.179-352.247 76.311-49.578 59.676 35.758 93.841 42.978 98.049 7.219 4.207 55.65 39.142 351.289 55.123 295.65 15.98 306.06 56.158 311 62.125 4.95 5.968 78.1 63.562-195.09 134.666-136.92 35.635-221.874 54.787-335.775 93.845C646 789.32 734.435 915.32 995 993.19c253 75.61 135.55 338.98-612.806 213.38C318.129 1192.59 99.5 1157.5 1.5 993.19" stroke="#454342" stroke-width="3" stroke-linecap="round" stroke-dasharray="20 20"/><g filter="url(#filter0_f)"><ellipse cx="1048" cy="77.638" rx="20" ry="19.314" fill="#378CCC"/></g><ellipse cx="1048" cy="77.638" rx="12.667" ry="12.232" fill="#378CCC"/><g filter="url(#filter1_f)"><ellipse cx="1385" cy="504.97" rx="20" ry="19.314" fill="#378CCC"/></g><ellipse cx="1385" cy="504.97" rx="12.667" ry="12.232" fill="#378CCC"/><g filter="url(#filter2_f)"><ellipse cx="1110" cy="1087.2" rx="20" ry="19.314" fill="#378CCC"/></g><ellipse cx="1110" cy="1087.2" rx="12.667" ry="12.232" fill="#378CCC"/><g filter="url(#filter3_f)"><ellipse cx="664" cy="290.08" rx="20" ry="19.314" fill="#378CCC"/></g><ellipse cx="664" cy="290.08" rx="12.667" ry="12.232" fill="#378CCC"/><g filter="url(#filter4_f)"><ellipse cx="737" cy="812.919" rx="20" ry="19.314" fill="#378CCC"/></g><ellipse cx="737" cy="812.919" rx="12.667" ry="12.232" fill="#378CCC"/><defs><filter id="filter0_f" x="1013" y="43.325" width="70" height="68.627" filterUnits="userSpaceOnUse" color-interpolation-filters="sRGB"><feFlood flood-opacity="0" result="BackgroundImageFix"/><feBlend in="SourceGraphic" in2="BackgroundImageFix" result="shape"/><feGaussianBlur stdDeviation="7.5" result="effect1_foregroundBlur"/></filter><filter id="filter1_f" x="1350" y="470.657" width="70" height="68.627" filterUnits="userSpaceOnUse" color-interpolation-filters="sRGB"><feFlood flood-opacity="0" result="BackgroundImageFix"/><feBlend in="SourceGraphic" in2="BackgroundImageFix" result="shape"/><feGaussianBlur stdDeviation="7.5" result="effect1_foregroundBlur"/></filter><filter id="filter2_f" x="1075" y="1052.88" width="70" height="68.627" filterUnits="userSpaceOnUse" color-interpolation-filters="sRGB"><feFlood flood-opacity="0" result="BackgroundImageFix"/><feBlend in="SourceGraphic" in2="BackgroundImageFix" result="shape"/><feGaussianBlur stdDeviation="7.5" result="effect1_foregroundBlur"/></filter><filter id="filter3_f" x="629" y="255.766" width="70" height="68.627" filterUnits="userSpaceOnUse" color-interpolation-filters="sRGB"><feFlood flood-opacity="0" result="BackgroundImageFix"/><feBlend in="SourceGraphic" in2="BackgroundImageFix" result="shape"/><feGaussianBlur stdDeviation="7.5" result="effect1_foregroundBlur"/></filter><filter id="filter4_f" x="702" y="778.605" width="70" height="68.627" filterUnits="userSpaceOnUse" color-interpolation-filters="sRGB"><feFlood flood-opacity="0" result="BackgroundImageFix"/><feBlend in="SourceGraphic" in2="BackgroundImageFix" result="shape"/><feGaussianBlur stdDeviation="7.5" result="effect1_foregroundBlur"/></filter></defs></svg>