<svg width="93" height="84" viewBox="0 0 93 84" fill="none" xmlns="http://www.w3.org/2000/svg">
<circle cx="57.5882" cy="34.5882" r="34.5882" fill="#DEEFFA"/>
<path d="M47.0332 64.8633C47.0332 65.6077 46.4299 66.2109 45.6855 66.2109C44.9412 66.2109 44.3379 65.6077 44.3379 64.8633C44.3379 64.1189 44.9412 63.5156 45.6855 63.5156C46.4299 63.5156 47.0332 64.1189 47.0332 64.8633Z" fill="black"/>
<path d="M24.6621 64.8633C24.6621 65.6077 24.0588 66.2109 23.3145 66.2109C22.5701 66.2109 21.9668 65.6077 21.9668 64.8633C21.9668 64.1189 22.5701 63.5156 23.3145 63.5156C24.0588 63.5156 24.6621 64.1189 24.6621 64.8633Z" fill="black"/>
<path d="M23.7188 47.3438H45.2812C46.0251 47.3438 46.6289 46.7405 46.6289 45.9961V43.3008C46.6289 36.6246 41.2272 31.1719 34.5 31.1719C27.8117 31.1719 22.3711 36.613 22.3711 43.3008V45.9961C22.3711 46.7405 22.9744 47.3438 23.7188 47.3438ZM25.0664 43.3008C25.0664 38.0991 29.2984 33.8672 34.5 33.8672C39.6916 33.8672 43.9336 38.0676 43.9336 43.3008V44.6484H25.0664V43.3008Z" fill="black"/>
<path d="M42.5859 23.0859C42.5859 18.6271 38.9583 15 34.5 15C30.0412 15 26.4141 18.6271 26.4141 23.0859C26.4141 27.5448 30.0412 31.1719 34.5 31.1719C38.9583 31.1719 42.5859 27.5448 42.5859 23.0859ZM34.5 28.4766C31.5273 28.4766 29.1094 26.0582 29.1094 23.0859C29.1094 20.1137 31.5273 17.6953 34.5 17.6953C37.4722 17.6953 39.8906 20.1137 39.8906 23.0859C39.8906 26.0582 37.4722 28.4766 34.5 28.4766Z" fill="black"/>
<path d="M1.57613 56.462L13.5745 70.3755C13.7719 70.615 13.8809 70.9183 13.8809 71.2294V82.6523C13.8809 83.3967 14.4841 84 15.2285 84H31.8047C32.5485 84 33.1523 83.3967 33.1523 82.6523V64.4011C33.1523 62.6012 32.4511 60.9088 31.1782 59.6358C31.1714 59.6285 31.1646 59.6222 31.1572 59.6153L21.5614 50.4234C18.7024 47.5733 14.4789 47.0984 11.1855 48.7641V37.9102C11.1855 32.6301 6.48823 28.4766 1.34766 28.4766C0.603287 28.4766 0 29.0798 0 29.8242V52.1306C0 53.7035 0.554329 55.236 1.56139 56.4446C1.56612 56.4504 1.57086 56.4562 1.57613 56.462V56.462ZM2.69531 31.3045C5.86441 31.9273 8.49023 34.6463 8.49023 37.9102V51.3862V51.3899C8.49129 51.7463 8.63921 52.0942 8.88506 52.3396L18.5513 62.0064C19.0778 62.5328 19.9311 62.5328 20.4575 62.0064C20.984 61.4799 20.984 60.6266 20.4575 60.1002L11.8478 51.491C14.2757 49.938 17.5464 50.2196 19.6663 52.3396C19.6731 52.3464 29.2815 61.551 29.2815 61.551C30.0396 62.3138 30.457 63.3256 30.457 64.4011V81.3047H16.5762V71.2294C16.5762 70.2844 16.2424 69.3648 15.637 68.6404C15.6328 68.6351 15.6281 68.6299 15.6239 68.6246L3.62551 54.7116C3.02538 53.9873 2.69531 53.0713 2.69531 52.1306V31.3045Z" fill="black"/>
<path d="M67.6523 28.4766C62.3196 28.4766 57.8145 32.7964 57.8145 37.9102V48.7641C56.5763 48.1376 55.1992 47.8065 53.7715 47.8065C51.3799 47.8065 49.1315 48.7356 47.4386 50.4234C47.4386 50.4234 37.8286 59.6285 37.8218 59.6358C36.5483 60.9088 35.8477 62.6012 35.8477 64.4011V82.6523C35.8477 83.3967 36.4509 84 37.1953 84H53.7715C54.5153 84 55.1191 83.3967 55.1191 82.6523V71.2294C55.1191 70.9183 55.2276 70.615 55.425 70.3755C55.425 70.3755 67.4339 56.4504 67.4386 56.4446C68.4457 55.236 69 53.7035 69 52.1306V29.8242C69 29.0798 68.3962 28.4766 67.6523 28.4766V28.4766ZM66.3047 52.1306C66.3047 53.0713 65.9741 53.9873 65.374 54.7116C65.374 54.7116 53.3667 68.6351 53.3624 68.6404C52.7571 69.3648 52.4238 70.2844 52.4238 71.2294V81.3047H38.543V64.4011C38.543 63.3256 38.9604 62.3138 39.718 61.551C39.718 61.551 49.3269 52.3464 49.3337 52.3396C51.4536 50.2202 54.7243 49.938 57.1522 51.491L48.5425 60.1002C48.016 60.6266 48.016 61.4799 48.5425 62.0064C49.0689 62.5328 49.9217 62.5328 50.4481 62.0064L60.1149 52.3396C60.3592 52.0958 60.5087 51.7505 60.5098 51.3899C60.5098 51.3888 60.5098 51.3872 60.5098 51.3862V37.9102C60.5098 34.7526 63.0929 31.9357 66.3047 31.304V52.1306Z" fill="black"/>
</svg>
