<svg width="92" height="84" viewBox="0 0 92 84" fill="none" xmlns="http://www.w3.org/2000/svg">
<circle cx="56.992" cy="34.5882" r="34.5882" fill="#DEEFFA"/>
<path d="M68.6886 28.6C69.3866 27.9005 69.3866 26.7678 68.6886 26.0704C67.9892 25.3709 66.8573 25.3709 66.1593 26.0704C65.4599 26.7678 65.4599 27.9005 66.1593 28.6C66.8573 29.2974 67.9892 29.2974 68.6886 28.6Z" fill="black"/>
<path d="M22.1842 32.1758C22.8822 31.4785 22.8822 30.3457 22.1842 29.6462C21.4848 28.9488 20.3529 28.9488 19.6549 29.6462C18.9555 30.3457 18.9555 31.4785 19.6549 32.1758C20.3529 32.8753 21.4848 32.8753 22.1842 32.1758Z" fill="black"/>
<path d="M12.0492 41.5397L17.1958 36.8212C17.8675 36.2056 17.8668 35.2084 17.1958 34.5928C16.5241 33.9772 15.4352 33.9778 14.7635 34.5928L9.61696 39.3113C8.94593 39.9269 8.94593 40.9247 9.61763 41.5397C10.2887 42.1553 11.3775 42.1553 12.0492 41.5397Z" fill="black"/>
<path fill-rule="evenodd" clip-rule="evenodd" d="M85.7026 34.3642L66.6585 15.3168C66.0153 14.673 64.9763 14.6572 64.3141 15.282L62.156 17.3148C59.5751 19.7458 55.8561 23.2486 55.7827 23.3201C55.7798 23.323 55.7767 23.3258 55.7735 23.3286C55.7704 23.3314 55.7673 23.3342 55.7643 23.3372C54.1177 24.9838 52.4966 25.7178 50.508 25.7178C46.4426 25.7178 43.3281 26.866 40.7416 29.3156C38.6208 27.3072 36.2172 26.2688 32.8627 25.9223L24.4464 17.5054C23.7888 16.8478 22.7228 16.8478 22.0652 17.5054L0.493223 39.078C-0.1473 39.7179 -0.168344 40.7516 0.455739 41.4178C0.461468 41.4238 0.466822 41.4298 0.472128 41.4358C0.479004 41.4435 0.4858 41.4512 0.493223 41.4586C0.493223 41.4586 14.5308 55.4745 14.5505 55.4935L13.956 56.088C11.6544 58.3897 11.6531 62.1171 13.9567 64.4207C15.047 65.5098 16.5451 66.1569 18.1839 66.1404C18.1661 67.7575 18.7909 69.2549 19.9088 70.3729C21.0446 71.5086 22.5623 72.111 24.136 72.0945C24.1189 73.7103 24.743 75.2071 25.861 76.325C26.9513 77.414 28.4487 78.0611 30.0882 78.0447C30.0704 79.6618 30.6951 81.1592 31.8131 82.2771C34.1102 84.5742 37.8474 84.5742 40.1452 82.2771L40.741 81.6813L41.3368 82.2771C43.6339 84.5742 47.3711 84.5742 49.6688 82.2771C50.7842 81.1618 51.4102 79.6671 51.3944 78.048C53.0023 78.0644 54.5004 77.4456 55.6216 76.3244C56.7856 75.1604 57.3591 73.6261 57.3433 72.0972C58.9755 72.1143 60.467 71.479 61.5731 70.3729C62.693 69.2536 63.3165 67.7536 63.298 66.1404C64.8625 66.1562 66.3836 65.5617 67.5259 64.4201C69.8282 62.1178 69.8282 58.391 67.5259 56.088L66.9321 55.4942C68.6447 53.7835 69.7913 52.6387 70.5687 51.8632C71.1599 50.9001 71.0384 49.6232 70.2043 48.789C69.9716 48.5563 69.7044 48.3791 69.4192 48.2573C63.2894 54.3712 64.7947 52.8697 64.5508 53.1129L50.2646 38.8261L51.4549 37.6358C52.1126 36.9782 52.1126 35.9122 51.4549 35.2546C50.7973 34.5976 49.732 34.5976 49.0737 35.2546L40.7403 43.5886C39.4284 44.9006 37.2911 44.9006 35.9785 43.5886C34.6665 42.2753 34.6665 40.1387 35.9778 38.8261L39.4295 35.3754L42.8335 31.9724C44.8301 29.9758 47.1975 29.0848 50.508 29.0848C52.8892 29.0848 54.9449 28.3693 56.8711 26.8541L73.6345 44.0529L69.7831 47.8944C69.9049 48.1791 70.0819 48.4458 70.3143 48.6781C71.1602 49.5241 72.4616 49.637 73.4292 49.017C74.7585 47.6896 77.8883 44.5604 85.7026 36.7447C86.3602 36.0871 86.3602 35.0218 85.7026 34.3642ZM4.06477 40.2676L23.2561 21.0769L29.7238 27.5446L21.3939 35.8757C21.5158 36.1676 21.6955 36.441 21.9331 36.6786C22.7534 37.4989 24.002 37.63 24.9592 37.0717L32.7338 29.2959C35.1874 29.576 36.8393 30.2816 38.3538 31.6896L33.5972 36.4455C30.974 39.0708 30.974 43.3427 33.5979 45.9692C36.2238 48.5931 40.4963 48.5938 43.1216 45.9685L47.8841 41.2067C49.3537 42.6767 52.8441 46.1674 56.3345 49.6581L56.3356 49.6592C60.1543 53.4782 63.9728 57.297 65.1446 58.4693C66.1291 59.4531 66.1291 61.055 65.1453 62.0388C64.1602 63.0226 62.5576 63.0226 61.5731 62.0388L53.8355 54.3019C53.1779 53.6443 52.1119 53.6443 51.4543 54.3019C50.7973 54.9589 50.7973 56.0249 51.4543 56.6825L59.1925 64.4207C60.1796 65.4072 60.1803 67.0039 59.1919 67.9923C58.2035 68.9807 56.6061 68.9767 55.6216 67.9923L47.8841 60.2527C47.2271 59.5958 46.1611 59.5958 45.5035 60.2527C44.8458 60.9104 44.8458 61.9764 45.5028 62.634L53.2404 70.3729C54.2248 71.3573 54.2248 72.9593 53.2404 73.9431C52.7643 74.4199 52.1297 74.6829 51.4543 74.6829C50.3235 74.6829 49.7344 74.0536 48.9505 73.2162C48.6253 72.8688 48.2665 72.4855 47.8216 72.0965C47.8065 70.5458 47.1962 69.0905 46.0986 67.993C44.982 66.875 43.4865 66.2509 41.8708 66.2667C41.8872 64.6483 41.2605 63.1529 40.1452 62.0388C38.9812 60.8749 37.4469 60.3021 35.918 60.3178C35.9515 56.9975 33.2625 54.3289 29.9665 54.3631C29.9829 52.7276 29.3437 51.2381 28.2409 50.1352C25.9438 47.8375 22.2059 47.8375 19.9088 50.1352L16.9311 53.1129L12.9196 49.1133L21.0253 41.0063C21.5819 40.0494 21.4503 38.8023 20.6307 37.9826C20.3929 37.7448 20.1191 37.5649 19.8268 37.443L10.5364 46.7347L4.06477 40.2676ZM16.3366 62.0395C15.3502 61.0531 15.3502 59.4557 16.3366 58.4686L22.2894 52.5158C23.2745 51.5314 24.8759 51.532 25.8603 52.5158C26.8487 53.5049 26.8487 55.0996 25.8603 56.088L19.9095 62.0388C18.9244 63.0226 17.3211 63.0226 16.3366 62.0395ZM22.2894 67.9923C21.3023 67.0045 21.301 65.4078 22.2894 64.4201L28.2409 58.4686C29.2293 57.4809 31.8131 58.4686 31.8131 58.4686C32.7976 59.4531 32.8015 61.0511 31.8131 62.0388L31.8124 62.0402L25.8603 67.9923C24.8759 68.9767 23.2739 68.9767 22.2894 67.9923ZM28.2409 73.9431C27.2545 72.9573 27.2545 71.3593 28.2409 70.3729L34.1937 64.4201C35.1782 63.4356 36.7795 63.4356 37.7652 64.4214C38.7372 65.3914 38.7661 66.9894 37.7646 67.9916L37.7639 67.9923L31.8138 73.9425C30.8286 74.9269 29.2254 74.9269 28.2409 73.9431ZM34.1937 79.8966C33.2066 78.9088 33.2053 77.3121 34.1937 76.3244L40.1452 70.3729C41.1323 69.3858 42.729 69.3845 43.7167 70.3729C44.7104 71.3666 44.6959 72.9652 43.7167 73.9438L37.7646 79.8966C36.7795 80.8804 35.1782 80.8804 34.1937 79.8966ZM47.2876 79.8966C46.3038 80.881 44.7018 80.881 43.7174 79.8966L43.1216 79.3008L46.098 76.3244C46.2992 76.1231 46.4807 75.9081 46.649 75.6852L47.2869 76.3237L47.2882 76.3244L47.2889 76.325C48.276 77.3121 48.276 78.9082 47.2876 79.8966ZM76.0158 41.6716L59.3556 24.5787L65.4333 18.8528L82.1317 35.5545L76.0158 41.6716Z" fill="black"/>
</svg>
